<?xml version="1.0" encoding="UTF-8"?>
<!DOCTYPE svg PUBLIC "-//W3C//DTD SVG 1.1//EN" "http://www.w3.org/Graphics/SVG/1.1/DTD/svg11.dtd">
<!-- Creator: CorelDRAW X6 -->
<svg xmlns="http://www.w3.org/2000/svg" xml:space="preserve" width="300px" height="55px" version="1.1" style="shape-rendering:geometricPrecision; text-rendering:geometricPrecision; image-rendering:optimizeQuality; fill-rule:evenodd; clip-rule:evenodd"
viewBox="0 0 301 56"
 xmlns:xlink="http://www.w3.org/1999/xlink">
 <defs>
  <style type="text/css">
   <![CDATA[
    .fil0 {fill:#FEFEFE; fill-rule:nonzero}
   ]]>
  </style>
 </defs>
 <g>
  <path class="fil0" d="M8 36c0,0 0,1 0,1 1,0 1,-1 1,-1 0,-2 1,-3 1,-5 1,-3 1,-7 2,-10 0,-3 0,-6 1,-9 1,-3 5,-1 4,1 0,2 0,3 0,5 0,1 -1,3 -1,4 -1,4 -1,7 -2,10 0,2 0,4 0,6 0,1 0,1 0,1 0,1 0,1 1,1 0,0 0,0 0,0 3,-1 3,4 0,4 0,0 0,0 -1,0 -1,0 -1,1 -1,1 -1,3 -1,6 -2,9 -1,2 -5,1 -5,-1 0,-3 -1,-5 -1,-8 0,-1 -1,-1 -2,-1 0,0 -1,0 -1,0 -3,0 -3,-4 0,-4 1,0 1,-1 1,-1 1,0 1,-1 1,-1 0,-2 -1,-3 -1,-4 -1,-7 -2,-14 -3,-20 0,-2 0,-3 2,-3 1,0 2,0 2,1 1,7 2,14 3,20l1 4z"/>
  <path class="fil0" d="M41 55c-3,0 -6,0 -9,0 -3,0 -3,-5 0,-5 0,0 0,0 0,0 1,0 2,-1 2,-2 0,-5 0,-9 0,-15 -1,-5 -1,-10 -1,-16 0,0 0,-1 -1,-1 0,-1 -1,-1 -2,-1 -2,0 -2,-4 0,-4 4,-1 7,0 10,0 3,-1 4,3 1,4 0,0 -1,0 -1,0 -1,0 -3,2 -3,3 0,5 0,10 1,15 0,5 0,10 0,15 0,1 1,1 1,2 0,0 1,0 2,0 0,0 0,0 0,0 3,0 3,5 0,5z"/>
  <path class="fil0" d="M72 53c0,1 -1,2 -2,2 -2,-1 -5,0 -7,0 -2,-1 -4,-1 -6,0 -2,0 -3,-2 -3,-3 0,-2 0,-3 0,-5 0,-2 0,-4 0,-5 0,-4 0,-7 0,-11 0,-3 0,-7 0,-11 0,-1 0,-2 0,-4 -2,-1 -2,-4 0,-4 0,-1 1,-1 1,-1 1,-1 2,-1 3,0 0,0 0,0 1,0 1,0 2,0 4,0 2,0 4,0 6,0 3,0 3,5 0,4 -2,0 -4,0 -6,0 -1,0 -2,1 -4,1 0,0 -1,0 -1,1 0,0 0,0 0,0 0,1 0,1 0,1 0,1 0,1 1,2 0,0 0,0 1,0 0,0 1,0 2,0 1,0 4,-1 5,0 1,1 2,2 1,3 0,1 -2,1 -2,1 -1,0 -1,0 -1,0 0,0 -1,0 -1,0 -1,0 -2,0 -3,0 0,0 -1,0 -1,0 -1,0 -2,1 -2,2 0,1 0,2 0,2 0,1 0,1 1,2 0,0 0,0 1,0 2,0 4,0 6,0 3,0 3,4 0,4 -2,0 -4,0 -6,0 -1,0 -2,1 -2,2 0,1 0,1 0,1 0,2 1,2 2,2 2,0 4,0 7,0 2,0 2,5 0,5 -2,0 -5,0 -7,0 0,0 -1,0 -1,0 0,1 -1,1 -1,2 0,0 0,1 0,1 0,1 1,1 1,1 0,1 0,2 1,2 1,0 2,0 3,0 1,0 2,0 3,0 1,0 3,0 4,0 1,0 2,1 2,3z"/>
  <path class="fil0" d="M98 47c-1,4 -3,8 -7,8 -5,0 -8,-4 -8,-9 0,-2 0,-4 0,-6 0,-2 0,-4 0,-6 0,-3 4,-3 4,0 0,2 0,4 0,6 0,2 0,4 0,6 0,1 1,3 2,4 1,0 2,1 3,0 1,-1 1,-3 1,-4 1,-2 1,-5 1,-7 0,-5 0,-6 0,-11 0,0 0,-1 0,-1 0,-2 -1,-3 -2,-3 -3,0 -5,1 -8,1 -3,0 -3,-5 0,-5 3,0 5,0 8,0 1,0 2,-1 2,-2 0,-1 0,-1 -1,-2 0,0 -1,0 -2,0 -2,0 -5,0 -7,0 -2,0 -2,-1 -2,-2 -1,-1 0,-1 0,-2 1,-1 2,-1 3,-1 0,0 1,0 1,0 4,0 7,0 10,0 1,0 2,1 2,3 1,6 1,9 1,16 0,6 0,11 -1,17z"/>
  <path class="fil0" d="M113 2c0,-2 5,-2 5,0 0,1 0,2 1,1 0,0 1,-1 1,-1 0,-3 4,-2 4,1 -1,2 -2,5 -5,5 -3,0 -6,-3 -6,-6zm10 30c3,3 3,7 3,11 0,3 0,6 -1,9 -2,3 -5,3 -8,3 -3,-1 -5,-4 -6,-7 -1,-3 -1,-6 0,-10 0,-2 5,-1 4,2 0,1 0,3 0,5 0,1 0,3 1,4 1,1 2,1 3,2 2,0 2,-1 2,-2 1,-3 1,-7 1,-10 0,-1 -1,-3 -2,-4 -2,-1 -3,-1 -4,-2 -3,-2 -4,-4 -5,-8 0,-2 0,-5 0,-7 1,-3 2,-5 4,-6 3,-1 6,-2 8,0 4,3 3,9 3,13 0,2 -4,2 -4,0 0,-3 0,-5 0,-7 0,-1 -1,-1 -1,-2 0,0 0,0 0,0 0,0 0,-1 0,-1 -1,0 -2,0 -3,0 -2,1 -3,3 -3,5 0,2 0,5 1,7 1,2 2,2 3,3 1,1 3,1 4,2z"/>
  <path class="fil0" d="M158 52c1,3 -3,4 -4,1 0,0 -5,-15 -7,-18 -2,-3 -3,-7 -4,-9 0,0 0,-1 0,-1 0,0 -1,1 -1,1 0,2 0,5 0,7 0,7 0,13 0,20 0,3 -4,3 -4,0 0,-7 0,-13 0,-20 0,-7 0,-14 0,-20 0,-3 4,-4 4,-1 2,4 4,7 5,11 1,4 2,7 4,11 1,1 1,3 2,4 0,0 0,0 0,0 1,0 1,0 1,0 0,-1 0,-2 0,-3 0,-7 -1,-15 -1,-23 0,-2 5,-2 5,0 0,8 0,15 0,23 0,3 0,7 0,10 0,2 0,2 0,4 0,1 0,2 0,3z"/>
  <path class="fil0" d="M174 24c0,2 0,4 0,6 0,0 1,1 1,1 0,0 1,0 1,0 1,0 1,0 2,0 1,-1 2,-1 3,-1 1,-1 2,-2 2,-4 0,-2 0,-5 0,-8 0,-1 0,-2 -1,-2 0,-1 -1,-1 -2,-1 0,0 -1,0 -1,0 -1,0 -3,1 -4,2 -1,2 -1,5 -1,7zm9 14c0,0 0,-1 0,-2 0,0 0,-1 -1,-1 -1,-1 -1,-1 -2,-1 -1,1 -2,1 -3,2 -2,0 -3,2 -3,3 0,1 0,3 0,4 1,2 1,4 1,5 1,1 1,2 2,2 1,1 2,1 3,0 1,0 2,-1 2,-2 1,-3 1,-7 1,-10zm5 -7c0,1 -1,2 -1,2 0,4 0,7 0,10 0,3 0,8 -4,10 -2,2 -6,2 -9,1 -3,-3 -3,-7 -4,-10 0,-1 0,-3 0,-4 0,-1 -1,-2 -1,-2 -2,-1 -1,-4 0,-4 1,-1 1,-1 1,-1 0,-1 0,-2 0,-2 0,-3 0,-6 0,-9 0,-2 1,-5 2,-8 1,-2 4,-3 7,-3 0,0 1,0 1,0 3,0 6,2 7,5 0,3 0,6 0,9 0,1 1,2 2,2 1,1 2,3 -1,4z"/>
  <path class="fil0" d="M204 38c0,1 1,1 1,2 0,0 1,0 1,0 0,0 1,0 1,0 2,0 3,1 4,-3 0,0 -1,0 -1,-1 0,0 0,0 -1,0 -1,0 -2,0 -3,1 -1,0 -2,0 -2,0 0,1 0,1 0,1zm0 -7c0,0 0,1 1,1 0,0 0,0 1,0 1,0 2,0 3,0 1,-1 2,-1 1,-2 0,-1 0,-1 0,-3 0,-2 0,-5 0,-8 0,-1 0,-2 -1,-3 -1,-1 -2,-1 -4,-1 -1,1 -1,1 -1,2 0,1 0,3 0,4 0,3 0,6 0,9 0,0 0,1 0,1zm11 3c0,1 0,1 0,1 0,3 0,5 -2,7 0,0 0,1 0,1 1,2 1,8 1,10 0,3 -4,3 -4,0 0,-1 0,-5 0,-7 -1,0 -1,0 -1,0 0,-1 -1,-2 -1,-2 -1,0 -2,0 -2,0 -1,0 -2,1 -2,2 1,1 1,5 1,7 0,3 -5,3 -5,0 0,-4 0,-10 0,-14 0,-1 0,-1 -1,-2 -1,-1 -1,-2 0,-3 1,-1 1,-1 1,-2 0,-1 0,-1 0,-2 0,-4 0,-6 0,-9 0,-2 0,-3 0,-5 0,0 -1,-1 -1,-1 -1,-1 -1,-3 1,-4 0,0 0,0 0,0 1,-1 1,-1 2,-1 1,0 1,0 2,1 0,0 0,0 1,0 2,0 4,0 6,1 3,2 3,5 4,8 0,4 0,6 0,9 0,1 0,1 1,2 0,0 1,2 -1,3z"/>
  <path class="fil0" d="M237 37c0,0 0,0 0,-1 0,0 0,-1 -1,-1 -1,0 -1,0 -2,0 -1,0 -2,0 -3,0 0,0 0,1 0,1 -1,1 -1,3 0,3 0,1 0,1 0,1 0,0 1,0 1,0 1,-1 3,-1 3,0 1,0 1,0 2,0 0,0 0,-1 0,-1 0,0 0,-1 0,-2zm5 -3c0,1 -1,1 -1,2 0,0 0,0 0,0 0,1 1,2 0,3 0,2 -1,4 -3,5 0,0 -1,0 -1,0 -1,0 -1,1 -1,1 0,3 0,5 0,7 0,3 -4,3 -4,0 0,-2 0,-4 0,-6 0,-1 -1,-2 -1,-2 -2,0 -3,-1 -3,-2 -2,-1 -2,-3 -2,-5 0,-1 0,-1 0,-1 0,-1 0,-1 0,-2 -1,0 -1,-2 0,-3 0,0 0,-1 0,-1 0,0 0,0 0,-1 0,-2 0,-5 0,-8 0,-3 0,-6 0,-8 0,-3 5,-3 5,0 -1,2 -1,5 0,8 0,2 -1,5 -1,8 0,0 0,1 0,1 0,0 1,0 1,1 0,0 0,0 1,0 0,0 1,0 2,0 1,0 2,0 2,0 1,0 1,0 1,-1 0,-1 0,-2 0,-2 0,-5 0,-10 0,-15 0,-3 5,-3 5,0 -1,3 -1,7 -1,10 0,2 1,5 1,7 0,1 0,1 0,1 0,1 1,1 1,2 0,0 -1,1 -1,1z"/>
  <path class="fil0" d="M270 47c0,2 -1,4 -2,6 -2,1 -4,2 -6,2 -4,1 -7,-3 -8,-6 0,-3 0,-5 0,-8 0,-2 0,-6 0,-9 0,-3 4,-3 4,0 0,3 0,7 0,10 0,2 0,5 1,7 0,1 1,2 3,2 2,0 3,-2 3,-4 1,-2 0,-4 0,-6 0,-3 0,-7 0,-10 0,-3 0,-6 0,-9 0,-2 0,-4 0,-6 0,0 0,-1 -1,-1 0,0 -1,0 -1,0 -1,0 -1,0 -1,0 0,0 0,0 -1,0 0,0 -1,0 -1,1 -2,0 -5,0 -6,-2 -1,-1 0,-2 1,-3 0,0 1,0 2,0 0,1 0,1 0,1 1,0 1,0 1,-1 1,0 2,0 3,0 2,0 4,0 6,0 1,0 2,1 2,2 1,4 0,7 0,10 0,3 0,6 0,9 1,3 1,7 1,9 0,2 0,4 0,6z"/>
  <path class="fil0" d="M290 31c0,0 0,1 0,1 0,0 0,0 0,0 1,0 1,0 1,0 1,0 1,0 1,0 0,-1 0,-1 0,-1 0,-2 0,-3 0,-5 -1,0 -1,0 -1,0 0,0 0,0 0,0 -1,2 -1,4 -1,5zm3 9c0,0 0,0 1,-1 0,0 0,0 0,0 0,-1 -1,-2 -1,-2 0,-1 0,-1 0,-1 -1,0 -2,0 -3,0 0,0 -1,1 -1,1 0,1 0,1 0,2 0,0 0,0 0,0 0,0 1,1 1,1 0,0 1,0 2,0 0,0 1,0 1,0zm7 3c0,1 -1,1 0,2 0,3 0,6 1,8 0,3 -4,4 -4,1 -1,-2 -1,-6 -2,-9 0,-1 0,-1 -1,-1 -1,0 -2,0 -2,0 -1,0 -1,0 -2,0 -1,0 -2,0 -2,1 0,3 -1,7 -1,9 0,1 -2,2 -3,1 -1,0 -1,-1 -1,-2 0,-2 1,-6 1,-8 0,-1 0,-1 0,-1 -2,-1 -2,-3 -1,-4 1,0 1,-1 1,-1l0 -2c0,0 0,-1 0,-1 -3,-1 -2,-4 0,-4 1,0 2,-1 2,-2 0,-3 1,-7 2,-11 0,-2 0,-5 1,-7 0,0 0,0 0,0 0,-2 4,-3 4,0 1,2 1,6 2,9 0,3 1,6 2,10 0,0 1,1 1,1 0,0 1,0 1,0 3,0 3,5 0,4l0 0c-1,0 -1,0 -1,1 0,0 0,0 0,0 0,1 0,1 0,1 0,1 0,1 1,1 2,0 3,3 1,4z"/>
 </g>
</svg>
